<?xml version="1.0" standalone="yes"?>
<svg xmlns="http://www.w3.org/2000/svg" width="512" height="512">
<path style="fill:#088175; stroke:none;" d="M0 0L0 512L512 512L512 0L0 0z"/>
<path style="fill:#474444; stroke:none;" d="M64 73L64 74L79 74L64 73M433 73L433 74L448 74L433 73M51 74L51 75L60 75L51 74z"/>
<path style="fill:#e02161; stroke:none;" d="M102 182C69.9439 180.602 60.9561 154.331 61 127C61.0121 119.484 60.6747 105.388 65.7276 99.3032C70.2155 93.8988 81.7982 96 88 96C111.865 96 134.685 100.041 149 121L168 111C161.546 91.5426 138.241 82.2704 120 78.6003C102.488 75.077 84.8277 73.9148 67 74.0008C61.0369 74.0295 50.2828 73.5186 45.2137 76.9383C37.0566 82.4413 37.1092 104.145 37.0039 113C36.778 131.986 34.874 155.559 43.821 173C49.1281 183.345 70.3649 204.231 84 200.303C90.6567 198.386 98.1528 187.462 102 182z"/>
<path style="fill:#474444; stroke:none;" d="M88 74L88 75L96 75L88 74M416 74L416 75L424 75L416 74z"/>
<path style="fill:#e02161; stroke:none;" d="M344 111C348.748 112.977 356.853 119.773 361.961 119.003C367.873 118.112 374.427 107.515 380 104.338C393.899 96.4141 411.427 96 427 96C432.22 96 439.094 94.9329 443.891 97.4337C451.483 101.391 450.964 119.6 450.999 127C451.131 154.354 441.922 180.608 410 182C413.786 187.38 420.932 198.051 427.285 200.356C430.893 201.666 435.743 199.097 439 197.716C449.655 193.198 460.316 186.231 466.275 176C476.744 158.024 476.655 129.069 474.285 109C473.306 100.702 474.791 82.2416 466.775 76.9884C461.628 73.6147 450.992 74.0297 445 74.0008C427.203 73.9149 409.479 75.0836 392 78.6003C373.879 82.2463 350.22 91.5214 344 111z"/>
<path style="fill:#474444; stroke:none;" d="M452 74L452 75L461 75L452 74M46 75L46 76L49 76L46 75M99 75L99 76L105 76L99 75M407 75L407 76L414 76L407 75M462 75L462 76L466 76L462 75M44 76L45 77L44 76M108 76L108 77L113 77L108 76M399 76L399 77L404 77L399 76M467 76L468 77L467 76M43 77L44 78L43 77M114 77L114 78L118 78L114 77M394 77L394 78L398 78L394 77M468 77L469 78L468 77M42.3333 78.6667L42.6667 79.3333L42.3333 78.6667M119 78L119 79L123 79L119 78M389 78L389 79L393 79L389 78M469.333 78.6667L469.667 79.3333L469.333 78.6667M124.667 79.3333L125.333 79.6667L124.667 79.3333M385 79L385 80L388 80L385 79M41.3333 80.6667L41.6667 81.3333L41.3333 80.6667M128.667 80.3333L129.333 80.6667L128.667 80.3333M382.667 80.3333L383.333 80.6667L382.667 80.3333M470 80L470 83L471 83L470 80M132 81L133 82L132 81M378.667 81.3333L379.333 81.6667L378.667 81.3333M135 82L136 83L135 82M376 82L377 83L376 82M40 83L40 86L41 86L40 83M137.667 83.3333L138.333 83.6667L137.667 83.3333M373.667 83.3333L374.333 83.6667L373.667 83.3333M140 84L141 85L140 84M371 84L372 85L371 84M471 84L471 87L472 87L471 84M142 85L143 86L142 85M369 85L370 86L369 85M144 86L145 87L144 86M367 86L368 87L367 86M39 87L39 91L40 91L39 87M146 87L147 88L146 87M365 87L366 88L365 87M147 88L148 89L147 88M364 88L365 89L364 88M472 88L472 92L473 92L472 88M149 89L150 90L149 89M362 89L363 90L362 89M150 90L151 91L150 90M361 90L362 91L361 90M242 92L242 93L248 93L242 92z"/>
<path style="fill:#e02161; stroke:none;" d="M194 101C198.446 117.256 205.901 132.34 209.576 149C218.118 187.73 219.79 229.57 217.09 269C216.245 281.335 216.737 293.695 215.285 306C214.804 310.083 215.939 315.218 213.972 318.96C208.607 329.168 190.422 337.584 182 346C178.589 328.413 172.242 306.547 161.046 292.21C157.301 287.415 151.325 285.077 147.634 279.999C143.626 274.485 142.792 267.256 138.697 262.001C123.043 241.909 91.8566 227.21 67 224C55.827 242.122 41.9146 262.373 39 284L66 272C49.8776 288.832 34.2094 304.699 34 330C49.5146 323.541 62.8496 318 80 318L80 319C62.9243 321.522 45.1422 335.373 42 353C51.478 350.271 60.2642 345.604 70 343.425C98.5354 337.038 137.963 339.946 158.714 363.015C176.694 383.004 182.986 417.304 207 431.12C216.265 436.451 229.383 439.413 240 437.536C245.172 436.622 251.001 432.398 256 432.398C263.132 432.398 270.188 437.992 278 437.992C325.191 437.995 327.79 386 356.015 360.174C376.994 340.977 411.978 337.004 439 342.665C449.813 344.93 459.518 349.981 470 353C466.867 335.422 449.02 321.514 432 319L432 318C449.465 318 462.074 324.205 478 330C476.905 304.561 462.468 289.193 446 272L473 284C470.644 268.047 461.967 251.693 453.799 238C451.52 234.178 448.442 226.154 443.816 224.777C433.292 221.644 412.746 233.573 404 238.579C393.482 244.598 380.861 252.233 373.419 262.004C369.332 267.371 368.507 274.482 364.39 279.999C360.435 285.3 354.027 287.854 350.244 293.104C339.924 307.424 333.331 327.834 330 345C321.5 339.018 302.922 327.973 298.028 318.91C295.344 313.939 296.205 305.523 295.961 300C295.371 286.657 294 273.386 294 260C294 204.736 297.856 153.922 318 102C279.138 85.2796 233.641 92.8179 194 101z"/>
<path style="fill:#474444; stroke:none;" d="M264 92L264 93L272 93L264 92M358 92L359 93L358 92M38 93L38 97L39 97L38 93M154 93L155 94L154 93M231 93L231 94L235 94L231 93M277 93L277 94L281 94L277 93M357 93L358 94L357 93M155 94L156 95L155 94M224 94L224 95L227 95L224 94M285 94L285 95L288 95L285 94M356 94L357 95L356 94M473 94L473 99L474 99L473 94M156 95L157 96L156 95M218.667 95.3333L219.333 95.6667L218.667 95.3333M292.667 95.3333L293.333 95.6667L292.667 95.3333M102 182L82 201L82 202L84 203C77.5114 207.966 70.9075 216.331 68 224C93.5072 230.602 120.125 241.404 137.856 262.001C142.523 267.422 143.354 275.151 147.634 280.996C151.317 286.026 157.425 288.201 161.046 293.104C172.111 308.088 177.413 328.279 182 346C189.336 340.833 195.722 334.242 203 328.884C206.536 326.281 211.807 323.887 213.972 319.907C215.97 316.233 214.81 311.034 215.285 307C216.737 294.695 216.245 282.335 217.09 270C221.042 212.28 214.958 155.021 194 101L168 109L149 121C138.316 98.546 109.836 96 88 96C82.1016 96 70.2281 93.8357 65.7276 98.564C60.5398 104.014 61.0114 118.938 61 126C60.9553 153.834 68.5379 181.306 102 182M157 96L158 97L157 96M213.667 96.3333L214.333 96.6667L213.667 96.3333M297 96L297 97L300 97L297 96M354 96L355 97L354 96M344 109L317 101C316.374 115.391 305.934 132.466 302.65 147C293.152 189.038 290.75 236.12 294.83 279C295.925 290.499 292.265 309.546 298.028 319.826C300.068 323.465 304.73 325.765 308 328.151C315.196 333.401 322.006 341.273 330 345C334.446 327.859 339.955 307.403 350.904 293.104C354.622 288.249 360.637 285.989 364.39 280.996C368.772 275.168 369.584 267.528 374.225 262.004C391.792 241.091 418.693 231.128 444 224L429 201L410 182C442.765 181.32 451.044 154.604 451 127C450.989 120.056 451.715 101.349 444.772 97.4337C439.946 94.7119 432.325 96 427 96C411.098 96 393.212 96.236 379 104.338C373.533 107.455 367.695 117.124 361.961 118.323C357.244 119.31 347.179 112.213 344 109M158 97L159 98L158 97M208.667 97.3333L209.333 97.6667L208.667 97.3333M302.667 97.3333L303.333 97.6667L302.667 97.3333M353 97L354 98L353 97M159 98L160 99L159 98M204 98L205 99L204 98M306.667 98.3333L307.333 98.6667L306.667 98.3333M352 98L353 99L352 98M160 99L161 100L160 99M199.667 99.3333L200.333 99.6667L199.667 99.3333M310.667 99.3333L311.333 99.6667L310.667 99.3333M351 99L352 100L351 99M37 100L37 107L38 107L37 100M161 100L162 101L161 100M195.667 100.333L196.333 100.667L195.667 100.333M314.667 100.333L315.333 100.667L314.667 100.333M350 100L351 101L350 100M162 101L163 102L162 101M349 101L350 102L349 101M348 102L349 103L348 102M474 102L474 111L475 111L474 102M164 104L165 105L164 104M165 105L166 106L165 105M346 105L347 106L346 105M166 106L167 107L166 106M345 106L346 107L345 106M167 108L168 109L167 108M344 108L345 109L344 108M36 115L36 136L37 136L36 115z"/>
<path style="fill:#e02161; stroke:none;" d="M153 129L154 134L165 131L153 129M347 130L347 131L358 134L358 129L347 130z"/>
<path style="fill:#474444; stroke:none;" d="M474 137L474 146L475 146L474 137M37 143L37 150L38 150L37 143M473 149L473 154L474 154L473 149M38 152L38 157L39 157L38 152M472 156L472 160L473 160L472 156M39 159L39 162L40 162L39 159M471 161L471 164L472 164L471 161M40 163L40 166L41 166L40 163M470 165L470 168L471 168L470 165M41.3333 167.667L41.6667 168.333L41.3333 167.667M469.333 169.667L469.667 170.333L469.333 169.667M42.3333 170.667L42.6667 171.333L42.3333 170.667M468.333 171.667L468.667 172.333L468.333 171.667M43.3333 172.667L43.6667 173.333L43.3333 172.667M467.333 173.667L467.667 174.333L467.333 173.667M44 174L45 175L44 174M45 176L46 177L45 176M466 176L467 177L466 176M46 177L47 178L46 177M465 177L466 178L465 177M47 178L48 179L47 178M464 178L465 179L464 178M49 181L50 182L49 181M462 181L463 182L462 181M50 182L51 183L50 182M461 182L462 183L461 182M51 183L52 184L51 183M460 183L461 184L460 183M52 184L53 185L52 184M459 184L460 185L459 184M53 185L54 186L53 185M458 185L459 186L458 185M58 189L59 190L58 189M453 189L454 190L453 189M59 190L60 191L59 190M61 191L62 192L61 191M450 191L451 192L450 191M62 192L63 193L62 192M64 193L65 194L64 193M447 193L448 194L447 193M67 195L68 196L67 195M444 195L445 196L444 195M69 196L70 197L69 196M441.667 196.333L442.333 196.667L441.667 196.333M71.6667 197.333L72.3333 197.667L71.6667 197.333M439 197L440 198L439 197M74 198L75 199L74 198M437 198L438 199L437 198M76.6667 199.333L77.3333 199.667L76.6667 199.333M434.667 199.333L435.333 199.667L434.667 199.333M79.6667 200.333L80.3333 200.667L79.6667 200.333M431.667 200.333L432.333 200.667L431.667 200.333M66 225L67 226L66 225M65 226L66 227L65 226M446 226L447 227L446 226M63 229L64 230L63 229M448 229L449 230L448 229M61 232L62 233L61 232M450 232L451 233L450 232M60 234L61 235L60 234M451 234L452 235L451 234M59 235L60 236L59 235M452 235L453 236L452 235M58 237L59 238L58 237M453 237L454 238L453 237M57 239L58 240L57 239M454 239L455 240L454 239z"/>
<path style="fill:#aba8a6; stroke:none;" d="M165 243C172.34 239.975 175.58 244.194 172 251C179.298 244.901 171.493 236.377 165 243M329 243C334.955 240.668 340.832 244.774 335 250C342.979 250.183 337.385 234.472 329 243z"/>
<path style="fill:#f1f0ef; stroke:none;" d="M167.318 242.032C162.464 245.201 168.042 253.093 172.678 249.377C177.198 245.756 172.135 238.888 167.318 242.032M331.318 242.047C326.918 244.773 331.098 252.233 335.718 249.762C340.822 247.034 336.208 239.018 331.318 242.047z"/>
<path style="fill:#474444; stroke:none;" d="M55 242L56 243L55 242M456 242L457 243L456 242M54 244L55 245L54 244z"/>
<path style="fill:#aba8a6; stroke:none;" d="M164 244L164 247L165 247L164 244M328 244L328 248L329 248L328 244z"/>
<path style="fill:#474444; stroke:none;" d="M457 244L458 245L457 244M53 246L54 247L53 246M458 246L459 247L458 246M52 248L53 249L52 248z"/>
<path style="fill:#aba8a6; stroke:none;" d="M165 248L166 249L165 248M329 248L330 249L329 248z"/>
<path style="fill:#474444; stroke:none;" d="M459 248L460 249L459 248z"/>
<path style="fill:#aba8a6; stroke:none;" d="M166 249L167 250L166 249M330 249L331 250L330 249z"/>
<path style="fill:#474444; stroke:none;" d="M51 250L52 251L51 250z"/>
<path style="fill:#aba8a6; stroke:none;" d="M167 250L168 251L167 250M331 250L332 251L331 250z"/>
<path style="fill:#474444; stroke:none;" d="M460 250L461 251L460 250M50 252L51 253L50 252M461 252L462 253L461 252M49 254L50 255L49 254M462 254L463 255L462 254M48 256L49 257L48 256M463 256L464 257L463 256M47 258L48 259L47 258M464 258L465 259L464 258M46 260L47 261L46 260M465 260L466 261L465 260M45.3333 262.667L45.6667 263.333L45.3333 262.667M466.333 262.667L466.667 263.333L466.333 262.667M44 265L45 266L44 265M467 265L468 266L467 265M43.3333 267.667L43.6667 268.333L43.3333 267.667M468.333 267.667L468.667 268.333L468.333 267.667M42.3333 270.667L42.6667 271.333L42.3333 270.667M469.333 270.667L469.667 271.333L469.333 270.667M41.3333 272.667L41.6667 273.333L41.3333 272.667M63 272L66 274L63 272M446 274L450 273L446 274M59.6667 273.333L60.3333 273.667L59.6667 273.333M451 273L451 274L454 274L451 273M470.333 273.667L470.667 274.333L470.333 273.667M55.6667 274.333L56.3333 274.667L55.6667 274.333M63 274L64 275L63 274M448 274L449 275L448 274M455.667 274.333L456.333 274.667L455.667 274.333M40.3333 275.667L40.6667 276.333L40.3333 275.667M53.6667 275.333L54.3333 275.667L53.6667 275.333M457.667 275.333L458.333 275.667L457.667 275.333M51 276L52 277L51 276M60 276L61 277L60 276M451 276L452 277L451 276M460 276L461 277L460 276M471.333 276.667L471.667 277.333L471.333 276.667M49 277L50 278L49 277M59 277L60 278L59 277M452 277L453 278L452 277M462 277L463 278L462 277M39 278L39 281L40 281L39 278M47 278L48 279L47 278M58 278L59 279L58 278M453 278L454 279L453 278M464 278L465 279L464 278M46 279L47 280L46 279M57 279L58 280L57 279M454 279L455 280L454 279M465 279L466 280L465 279M472.333 279.667L472.667 280.333L472.333 279.667M44 280L45 281L44 280M56 280L57 281L56 280M455 280L456 281L455 280M467 280L468 281L467 280M43 281L44 282L43 281M456 281L457 282L456 281M468 281L469 282L468 281M38 282L40 285L38 282M41 282L42 283L41 282M457 282L458 283L457 282M473 282L473 286L474 286L473 282M40 283L41 284L40 283M53 283L54 284L53 283M458 283L459 284L458 283M471 283L472 284L471 283M52 284L53 285L52 284M459 284L460 285L459 284M51 285L52 286L51 285M460 285L461 286L460 285M50 286L51 287L50 286M48 289L49 290L48 289M463 289L464 290L463 289M47 290L48 291L47 290M46 292L47 293L46 292M465 292L466 293L465 292M45 293L46 294L45 293M466.333 293.667L466.667 294.333L466.333 293.667M44 295L45 296L44 295M467 295L468 296L467 295M43 297L44 298L43 297M468 297L469 298L468 297M42.3333 298.667L42.6667 299.333L42.3333 298.667M469 299L470 300L469 299M41.3333 300.667L41.6667 301.333L41.3333 300.667M470 301L471 302L470 301M40.3333 302.667L40.6667 303.333L40.3333 302.667M471 303L472 304L471 303M39 305L40 306L39 305M472.333 305.667L472.667 306.333L472.333 305.667M38.3333 307.667L38.6667 308.333L38.3333 307.667M473.333 307.667L473.667 308.333L473.333 307.667M37.3333 310.667L37.6667 311.333L37.3333 310.667M474.333 310.667L474.667 311.333L474.333 310.667M36.3333 313.667L36.6667 314.333L36.3333 313.667M475.333 313.667L475.667 314.333L475.333 313.667M35 316L35 319L36 319L35 316M476 317L476 320L477 320L476 317M68 318L68 319L75 319L68 318M78.6667 318.333L79.3333 318.667L78.6667 318.333M432.667 318.333L433.333 318.667L432.667 318.333M437 318L437 319L445 319L437 318M62.6667 319.333L63.3333 319.667L62.6667 319.333M76 319L77 320L76 319M435 319L436 320L435 319M448.667 319.333L449.333 319.667L448.667 319.333M57.6667 320.333L58.3333 320.667L57.6667 320.333M72.6667 320.333L73.3333 320.667L72.6667 320.333M438 320L439 321L438 320M453.667 320.333L454.333 320.667L453.667 320.333M34.3333 321.667L34.6667 322.333L34.3333 321.667M54 321L55 322L54 321M70 321L71 322L70 321M441 321L442 322L441 321M457 321L458 322L457 321M50 322L51 323L50 322M67 322L68 323L67 322M444 322L445 323L444 322M460.667 322.333L461.333 322.667L460.667 322.333M477 322L477 325L478 325L477 322M48 323L49 324L48 323M463 323L464 324L463 323M45 324L46 325L45 324M64 324L65 325L64 324M447 324L448 325L447 324M465.667 324.333L466.333 324.667L465.667 324.333M43 325L44 326L43 325M62 325L63 326L62 325M449 325L450 326L449 325M468 325L469 326L468 325M41 326L42 327L41 326M470 326L471 327L470 326M33 327L35 331L33 327M39 327L40 328L39 327M59 327L60 328L59 327M452 327L453 328L452 327M472 327L473 328L472 327M37 328L38 329L37 328M474 328L475 329L474 328M478 328L477 331L478 328M35 329L36 330L35 329M475 329L476 330L475 329M456 330L457 331L456 330M54 331L55 332L54 331M457 331L458 332L457 331M53 332L54 333L53 332M458 332L459 333L458 332M52 333L53 334L52 333M51 334L52 335L51 334M461 336L462 337L461 336M49 337L50 338L49 337M462 337L463 338L462 337M48 338L49 339L48 338M463 338L464 339L463 338M47 340L48 341L47 340M415 340L415 341L418 341L415 340M464 340L465 341L464 340M46 341L47 342L46 341M80 341L80 342L88 342L80 341M104 341L104 342L110 342L104 341M402 341L402 342L408 342L402 341M423 341L423 342L432 342L423 341M465 341L466 342L465 341M74 342L74 343L78 343L74 342M112 342L112 343L116 343L112 342M395 342L395 343L400 343L395 342M434 342L434 343L439 343L434 342M45 343L46 344L45 343M69 343L69 344L72 344L69 343M118 343L118 344L122 344L118 343M390 343L390 344L394 344L390 343M440 343L440 344L443 344L440 343M466 343L467 344L466 343M44.3333 344.667L44.6667 345.333L44.3333 344.667M65.6667 344.333L66.3333 344.667L65.6667 344.333M124.667 344.333L125.333 344.667L124.667 344.333M386.667 344.333L387.333 344.667L386.667 344.333M445.667 344.333L446.333 344.667L445.667 344.333M62.6667 345.333L63.3333 345.667L62.6667 345.333M128 345L128 346L131 346L128 345M381 345L381 346L384 346L381 345M448.667 345.333L449.333 345.667L448.667 345.333M467 345L468 346L467 345M43.3333 346.667L43.6667 347.333L43.3333 346.667M59 346L60 347L59 346M132.667 346.333L133.333 346.667L132.667 346.333M378.667 346.333L379.333 346.667L378.667 346.333M452 346L453 347L452 346M56 347L57 348L56 347M135 347L136 348L135 347M376 347L377 348L376 347M455 347L456 348L455 347M468 347L469 348L468 347M42.3333 348.667L42.6667 349.333L42.3333 348.667M53 348L54 349L53 348M138 348L139 349L138 348M208 362C212.652 376.026 229.64 391.085 241 399.985C245.165 403.249 250.403 407.63 256 407.63C261.546 407.63 266.817 403.283 271 400.101C282.344 391.472 299.417 375.816 304 362C276.233 343.688 235.767 343.688 208 362M373 348L374 349L373 348M458 348L459 349L458 348M50.6667 349.333L51.3333 349.667L50.6667 349.333M140 349L141 350L140 349M371 349L372 350L371 349M460.667 349.333L461.333 349.667L460.667 349.333M469 349L470 350L469 349M48 350L49 351L48 350M142 350L143 351L142 350M369 350L370 351L369 350M463 350L464 351L463 350M41 351L43 354L41 351M46 351L47 352L46 351M144 351L145 352L144 351M367 351L368 352L367 351M465 351L466 352L465 351M470 351L469 354L470 351M44 352L45 353L44 352M467 352L468 353L467 352M147 353L148 354L147 353M364 353L365 354L364 353M150 355L151 356L150 355M361 355L362 356L361 355M154 358L155 359L154 358M357 358L358 359L357 358M155 359L156 360L155 359M356 359L357 360L356 359M156 360L157 361L156 360M355 360L356 361L355 360M157 361L158 362L157 361M354 361L355 362L354 361M158 362L159 363L158 362M353 362L354 363L353 362M159 363L160 364L159 363M352 363L353 364L352 363M351 364L352 365L351 364M162 367L163 368L162 367M349 367L350 368L349 367M163 368L164 369L163 368M348 368L349 369L348 368M164 369L165 370L164 369M347 369L348 370L347 369M165 371L166 372L165 371M346 371L347 372L346 371M166 372L167 373L166 372M345 372L346 373L345 372M167 374L168 375L167 374M344 374L345 375L344 374M168 375L169 376L168 375M343 375L344 376L343 375M342.333 376.667L342.667 377.333L342.333 376.667M169 377L170 378L169 377M170 378L171 379L170 378M341 378L342 379L341 378M171 380L172 381L171 380M340 380L341 381L340 380M339.333 381.667L339.667 382.333L339.333 381.667M172 382L173 383L172 382M173.333 383.667L173.667 384.333L173.333 383.667M338 383L339 384L338 383M174 385L175 386L174 385M337 385L338 386L337 385M175 387L176 388L175 387M336 387L337 388L336 387M335.333 388.667L335.667 389.333L335.333 388.667M176 389L177 390L176 389M334 390L335 391L334 390M177 391L178 392L177 391M178.333 392.667L178.667 393.333L178.333 392.667M333 392L334 393L333 392M179 394L180 395L179 394M332 394L333 395L332 394M180 396L181 397L180 396M331 396L332 397L331 396M181 398L182 399L181 398M330 398L331 399L330 398M182 400L183 401L182 400M329 400L330 401L329 400M183 402L184 403L183 402M328 402L329 403L328 402M184 404L185 405L184 404M327 404L328 405L327 404M326 405L327 406L326 405M185 406L186 407L185 406M325 407L326 408L325 407M187 409L188 410L187 409M324 409L325 410L324 409M188 411L189 412L188 411M322 412L323 413L322 412M190 414L191 415L190 414M321 414L322 415L321 414M320 415L321 416L320 415M192 417L193 418L192 417M319 417L320 418L319 417M318 418L319 419L318 418M195 421L196 422L195 421M196 422L197 423L196 422M197 423L198 424L197 423M314 423L315 424L314 423M198 424L199 425L198 424M313 424L314 425L313 424M199 425L200 426L199 425M312 425L313 426L312 425M200 426L201 427L200 426M311 426L312 427L311 426M201 427L202 428L201 427M202 428L203 429L202 428M308 428L309 429L308 428M204 429L205 430L204 429M307 429L308 430L307 429M205 430L206 431L205 430M305 430L306 431L305 430M207 431L208 432L207 431M304 431L305 432L304 431M208.667 432.333L209.333 432.667L208.667 432.333M253 432L254 433L253 432M258 432L259 433L258 432M302 432L303 433L302 432M210.667 433.333L211.333 433.667L210.667 433.333M252 433L253 434L252 433M259 433L260 434L259 433M300 433L301 434L300 433M213.667 434.333L214.333 434.667L213.667 434.333M250 434L251 435L250 434M261 434L262 435L261 434M297.667 434.333L298.333 434.667L297.667 434.333M216.667 435.333L217.333 435.667L216.667 435.333M248 435L249 436L248 435M263 435L264 436L263 435M294.667 435.333L295.333 435.667L294.667 435.333M219 436L219 437L222 437L219 436M244 436L244 437L247 437L244 436M265 436L265 437L268 437L265 436M290 436L290 437L293 437L290 436M223 437L223 438L228 438L223 437M240 437L240 438L243 438L240 437M269 437L269 438L272 438L269 437M284 437L284 438L289 438L284 437M231 438L231 439L237 439L231 438M275 438L275 439L281 439L275 438z"/>
</svg>
